<mxfile host="app.diagrams.net" modified="2021-03-15T14:07:28.380Z" agent="5.0 (Windows)" etag="_xHqG5t3tCsGZeYj85qL" version="14.4.8" type="github">
  <diagram id="XoU3Bt1LMFYwkGAeQ--i" name="Page-1">
    <mxGraphModel dx="1178" dy="642" grid="1" gridSize="10" guides="1" tooltips="1" connect="1" arrows="1" fold="1" page="1" pageScale="1" pageWidth="850" pageHeight="1100" math="0" shadow="0">
      <root>
        <mxCell id="0" />
        <mxCell id="1" parent="0" />
        <mxCell id="S6iedcPOF-C0Tjoc7csU-27" value="" style="edgeStyle=orthogonalEdgeStyle;rounded=0;orthogonalLoop=1;jettySize=auto;html=1;endArrow=open;endFill=0;" edge="1" parent="1" source="S6iedcPOF-C0Tjoc7csU-2" target="S6iedcPOF-C0Tjoc7csU-5">
          <mxGeometry relative="1" as="geometry" />
        </mxCell>
        <mxCell id="S6iedcPOF-C0Tjoc7csU-2" value="System" style="rounded=0;whiteSpace=wrap;html=1;" vertex="1" parent="1">
          <mxGeometry x="310" y="110" width="120" height="60" as="geometry" />
        </mxCell>
        <mxCell id="S6iedcPOF-C0Tjoc7csU-18" value="" style="edgeStyle=orthogonalEdgeStyle;rounded=0;orthogonalLoop=1;jettySize=auto;html=1;endArrow=open;endFill=0;" edge="1" parent="1" source="S6iedcPOF-C0Tjoc7csU-3" target="S6iedcPOF-C0Tjoc7csU-4">
          <mxGeometry relative="1" as="geometry" />
        </mxCell>
        <mxCell id="S6iedcPOF-C0Tjoc7csU-3" value="Projekt" style="rounded=0;whiteSpace=wrap;html=1;" vertex="1" parent="1">
          <mxGeometry x="220" y="220" width="120" height="60" as="geometry" />
        </mxCell>
        <mxCell id="S6iedcPOF-C0Tjoc7csU-4" value="Aktivitet" style="rounded=0;whiteSpace=wrap;html=1;" vertex="1" parent="1">
          <mxGeometry x="220" y="320" width="120" height="60" as="geometry" />
        </mxCell>
        <mxCell id="S6iedcPOF-C0Tjoc7csU-5" value="Tidsregistrering" style="rounded=0;whiteSpace=wrap;html=1;" vertex="1" parent="1">
          <mxGeometry x="100" y="110" width="120" height="60" as="geometry" />
        </mxCell>
        <mxCell id="S6iedcPOF-C0Tjoc7csU-6" value="Medarbejder" style="rounded=0;whiteSpace=wrap;html=1;" vertex="1" parent="1">
          <mxGeometry x="420" y="220" width="130" height="60" as="geometry" />
        </mxCell>
        <mxCell id="S6iedcPOF-C0Tjoc7csU-11" value="" style="edgeStyle=orthogonalEdgeStyle;rounded=0;orthogonalLoop=1;jettySize=auto;html=1;entryX=0.5;entryY=1;entryDx=0;entryDy=0;" edge="1" parent="1" source="S6iedcPOF-C0Tjoc7csU-7" target="S6iedcPOF-C0Tjoc7csU-6">
          <mxGeometry relative="1" as="geometry" />
        </mxCell>
        <mxCell id="S6iedcPOF-C0Tjoc7csU-7" value="Projektleder" style="rounded=0;whiteSpace=wrap;html=1;" vertex="1" parent="1">
          <mxGeometry x="425" y="320" width="120" height="60" as="geometry" />
        </mxCell>
        <mxCell id="S6iedcPOF-C0Tjoc7csU-14" value="" style="edgeStyle=orthogonalEdgeStyle;rounded=0;orthogonalLoop=1;jettySize=auto;html=1;" edge="1" parent="1" source="S6iedcPOF-C0Tjoc7csU-13" target="S6iedcPOF-C0Tjoc7csU-7">
          <mxGeometry relative="1" as="geometry" />
        </mxCell>
        <mxCell id="S6iedcPOF-C0Tjoc7csU-13" value="Administrator" style="rounded=0;whiteSpace=wrap;html=1;" vertex="1" parent="1">
          <mxGeometry x="425" y="420" width="120" height="60" as="geometry" />
        </mxCell>
        <mxCell id="S6iedcPOF-C0Tjoc7csU-15" value="" style="endArrow=open;html=1;exitX=0.5;exitY=1;exitDx=0;exitDy=0;entryX=0.5;entryY=0;entryDx=0;entryDy=0;edgeStyle=orthogonalEdgeStyle;rounded=0;endFill=0;" edge="1" parent="1" source="S6iedcPOF-C0Tjoc7csU-2" target="S6iedcPOF-C0Tjoc7csU-3">
          <mxGeometry width="50" height="50" relative="1" as="geometry">
            <mxPoint x="380" y="350" as="sourcePoint" />
            <mxPoint x="430" y="300" as="targetPoint" />
          </mxGeometry>
        </mxCell>
        <mxCell id="S6iedcPOF-C0Tjoc7csU-16" value="1" style="text;html=1;strokeColor=none;fillColor=none;align=center;verticalAlign=middle;whiteSpace=wrap;rounded=0;" vertex="1" parent="1">
          <mxGeometry x="360" y="170" width="40" height="20" as="geometry" />
        </mxCell>
        <mxCell id="S6iedcPOF-C0Tjoc7csU-17" value="0..*" style="text;html=1;strokeColor=none;fillColor=none;align=center;verticalAlign=middle;whiteSpace=wrap;rounded=0;" vertex="1" parent="1">
          <mxGeometry x="280" y="200" width="40" height="20" as="geometry" />
        </mxCell>
        <mxCell id="S6iedcPOF-C0Tjoc7csU-19" value="0..*" style="text;html=1;strokeColor=none;fillColor=none;align=center;verticalAlign=middle;whiteSpace=wrap;rounded=0;" vertex="1" parent="1">
          <mxGeometry x="280" y="300" width="40" height="20" as="geometry" />
        </mxCell>
        <mxCell id="S6iedcPOF-C0Tjoc7csU-21" value="1" style="text;html=1;strokeColor=none;fillColor=none;align=center;verticalAlign=middle;whiteSpace=wrap;rounded=0;" vertex="1" parent="1">
          <mxGeometry x="270" y="280" width="40" height="20" as="geometry" />
        </mxCell>
        <mxCell id="S6iedcPOF-C0Tjoc7csU-24" value="" style="endArrow=open;html=1;entryX=0.473;entryY=0.005;entryDx=0;entryDy=0;entryPerimeter=0;exitX=0.795;exitY=1.01;exitDx=0;exitDy=0;exitPerimeter=0;edgeStyle=orthogonalEdgeStyle;rounded=0;endFill=0;" edge="1" parent="1" source="S6iedcPOF-C0Tjoc7csU-2" target="S6iedcPOF-C0Tjoc7csU-6">
          <mxGeometry width="50" height="50" relative="1" as="geometry">
            <mxPoint x="370" y="200" as="sourcePoint" />
            <mxPoint x="360" y="180" as="targetPoint" />
          </mxGeometry>
        </mxCell>
        <mxCell id="S6iedcPOF-C0Tjoc7csU-25" value="1" style="text;html=1;strokeColor=none;fillColor=none;align=center;verticalAlign=middle;whiteSpace=wrap;rounded=0;" vertex="1" parent="1">
          <mxGeometry x="400" y="170" width="40" height="20" as="geometry" />
        </mxCell>
        <mxCell id="S6iedcPOF-C0Tjoc7csU-26" value="0..*" style="text;html=1;strokeColor=none;fillColor=none;align=center;verticalAlign=middle;whiteSpace=wrap;rounded=0;" vertex="1" parent="1">
          <mxGeometry x="480" y="200" width="40" height="20" as="geometry" />
        </mxCell>
        <mxCell id="S6iedcPOF-C0Tjoc7csU-28" value="1" style="text;html=1;strokeColor=none;fillColor=none;align=center;verticalAlign=middle;whiteSpace=wrap;rounded=0;" vertex="1" parent="1">
          <mxGeometry x="270" y="120" width="40" height="20" as="geometry" />
        </mxCell>
        <mxCell id="S6iedcPOF-C0Tjoc7csU-29" value="1" style="text;html=1;strokeColor=none;fillColor=none;align=center;verticalAlign=middle;whiteSpace=wrap;rounded=0;" vertex="1" parent="1">
          <mxGeometry x="180" y="120" width="40" height="20" as="geometry" />
        </mxCell>
      </root>
    </mxGraphModel>
  </diagram>
</mxfile>
